<?xml version="1.0" encoding="iso-8859-1"?>
<!-- Generator: Adobe Illustrator 19.0.0, SVG Export Plug-In . SVG Version: 6.00 Build 0)  -->
<svg version="1.1" id="Layer_1" xmlns="http://www.w3.org/2000/svg" xmlns:xlink="http://www.w3.org/1999/xlink" x="0px" y="0px"
	 viewBox="0 0 301.044 301.044" style="enable-background:new 0 0 301.044 301.044;" xml:space="preserve">
<g>
	<path style="fill:#4EFFBB;" d="M163.656,34.517c-73.457,0-133.264,59.766-133.264,133.264c0,73.456,59.807,133.263,133.264,133.263
		c73.497,0,133.263-59.807,133.263-133.263C296.919,94.283,237.152,34.517,163.656,34.517z"/>
	<g>
		<path style="fill:#222051;" d="M246.031,56.162C221.852,22.207,182.185,0,137.408,0C98.345,0,63.183,16.857,38.763,43.69
			C17.28,67.386,4.125,98.846,4.125,133.283c0,27.558,8.408,53.185,22.811,74.427c23.937,35.483,64.53,58.817,110.473,58.817
			c18.225,0,35.645-3.701,51.495-10.379c27.116-11.385,49.685-31.5,64.208-56.846h0.04c11.104-19.471,17.5-42,17.5-66.018
			C270.652,104.559,261.52,77.967,246.031,56.162z M226.197,56.966l-12.029,38.299l-27.84,11.264l-41.317-30.414l-1.046-28.041
			l35.483-24.138C197.674,30.937,213.726,42.403,226.197,56.966z M96.293,23.575l31.541,24.38l1.086,28.604l-41.8,30.012
			l-22.77-6.879L53.206,51.897C65.154,39.506,79.838,29.73,96.293,23.575z M58.637,114.778l23.092,6.96l15.489,48.799
			l-19.029,21.644l-45.501-6.437c-7.322-14.483-11.707-30.655-12.351-47.794L58.637,114.778z M97.057,243.274l-7.04-40.15
			l19.15-21.845l55.317,0.362l20.276,22.69l-13.477,41.116c-10.701,3.259-22.087,4.989-33.874,4.989
			C123.247,250.435,109.649,247.9,97.057,243.274z M237.26,194.514l-39.828-0.121l-21.081-23.615l16.414-49.483l26.874-10.903
			l34.88,24.822C254.197,156.939,247.922,177.215,237.26,194.514z"/>
	</g>
</g>
<g>
</g>
<g>
</g>
<g>
</g>
<g>
</g>
<g>
</g>
<g>
</g>
<g>
</g>
<g>
</g>
<g>
</g>
<g>
</g>
<g>
</g>
<g>
</g>
<g>
</g>
<g>
</g>
<g>
</g>
</svg>
